                <svg xmlns="http://www.w3.org/2000/svg" width="256" height="31" viewBox="0 0 256 31" fill="none">
                    <path d="M245.087 11.952C242.153 11.952 240.441 13.263 240.001 16.4001L249.782 16.4001C249.587 13.4503 248.071 11.952 245.087 11.952ZM245.185 30.072C238.192 30.072 233.301 26.2326 233.301 18.8348C233.301 11.156 237.752 6.66113 245.283 6.66113C252.423 6.66113 255.895 11.0156 255.895 17.0556C255.895 18.0388 255.895 18.788 255.798 20.0053L239.952 20.0053C240.393 23.1892 242.153 24.5939 245.283 24.5939C248.364 24.5939 249.391 23.1424 249.929 21.41L255.7 22.9551C254.575 26.9818 251.543 30.072 245.185 30.072Z" fill="#291547" />
                    <path d="M230.543 0.760742L230.543 29.4625L223.843 29.4625L223.843 0.760742L230.543 0.760742Z" fill="#291547" />
                    <path d="M209.621 24.3589C212.946 24.3589 214.462 22.1115 214.462 18.2721C214.462 14.5732 212.995 12.4194 209.621 12.4194C206.54 12.4194 204.73 14.4327 204.73 18.0848L204.73 18.5062C204.73 22.1115 206.54 24.3589 209.621 24.3589ZM204.73 0.760742L204.73 13.2622L204.828 13.2622C205.953 8.57998 208.594 6.66029 212.604 6.66029C218.179 6.66029 221.064 11.0147 221.064 18.2253C221.064 25.7168 218.081 30.118 212.457 30.118C208.447 30.118 205.953 28.1515 204.828 23.4693L204.73 23.4693L204.73 29.4625L198.03 29.4625L198.03 0.760742L204.73 0.760742Z" fill="#291547" />
                    <path d="M183.139 24.7813C185.975 24.7813 187.833 23.1893 187.833 20.9419L187.833 20.2864L182.845 20.2864C180.889 20.2864 179.715 21.1292 179.715 22.3465C179.715 23.7044 180.595 24.7813 183.139 24.7813ZM187.833 29.4635L187.833 24.0321L187.736 24.0321C186.709 27.8247 184.166 29.9317 180.253 29.9317C176.243 29.9317 173.211 27.8247 173.211 23.4703C173.211 19.4436 175.705 16.6811 181.818 16.6811L187.833 16.6811L187.833 15.7447C187.833 13.3568 186.757 12.0457 184.214 12.0457C182.014 12.0457 180.595 12.9822 180.155 15.5574L173.896 14.7146C174.482 10.0792 177.319 6.75488 184.508 6.75488C191.55 6.75488 194.484 10.0324 194.484 15.6978L194.484 29.4635L187.833 29.4635Z" fill="#291547" />
                    <path d="M158.815 22.4862L158.815 12.6067L156.125 12.6067L156.125 7.26906L158.815 7.26906L158.815 1.69727L165.466 1.69727L165.466 7.26906L171.579 7.26906L171.579 12.6067L165.466 12.6067L165.466 21.2688C165.466 23.048 166.151 23.8908 168.156 23.8908C169.183 23.8908 170.357 23.5631 171.188 23.3758L171.922 29.2753C170.161 29.7904 168.987 30.1181 166.444 30.1181C161.065 30.1181 158.815 26.7001 158.815 22.4862Z" fill="#291547" />
                    <path d="M139.147 16.4469L139.147 29.4634L132.447 29.4634L132.447 7.26982L139.147 7.26982L139.147 13.4971L139.196 13.4971C140.272 8.39354 143.059 6.66113 146.776 6.66113C151.813 6.66113 153.916 9.84502 153.916 14.6208L153.916 29.4634L147.265 29.4634L147.265 16.4469C147.265 14.1526 146.189 12.4202 143.402 12.4202C140.712 12.4202 139.147 13.9185 139.147 16.4469Z" fill="#291547" />
                    <path d="M122.117 29.4631L122.117 23.2826L122.02 23.2826C120.944 28.3393 118.205 30.1186 114.488 30.1186C109.451 30.1186 107.299 26.9347 107.299 22.112L107.299 7.26953L113.999 7.26953L113.999 20.286C113.999 22.5803 115.075 24.3595 117.863 24.3595C120.552 24.3595 122.117 22.8612 122.117 20.286L122.117 7.26953L128.768 7.26953L128.768 29.4631L122.117 29.4631Z" fill="#291547" />
                    <path d="M92.7452 30.1189C85.2627 30.1189 80.7146 25.6708 80.7146 18.3666C80.7146 10.9687 85.4095 6.66113 92.7452 6.66113C100.032 6.66113 104.727 10.9687 104.727 18.3666C104.727 25.6708 100.179 30.1189 92.7452 30.1189ZM92.7452 12.467C89.3218 12.467 87.4145 14.7613 87.4145 18.3198C87.4145 21.925 89.2729 24.2661 92.6963 24.2661C96.1685 24.2661 98.0758 21.925 98.0758 18.3198C98.0758 14.7613 96.1196 12.467 92.7452 12.467Z" fill="#291547" />
                    <path d="M72.3325 16.9151C71.7945 14.3399 70.4741 12.467 67.4909 12.467C64.5077 12.467 62.3559 14.2463 62.3559 18.3198C62.3559 22.2996 64.4099 24.2661 67.5398 24.2661C70.6208 24.2661 71.7945 22.2528 72.3814 19.4435L78.7879 20.614C78.0054 26.4199 74.631 30.1189 67.6865 30.1189C60.3508 30.1189 55.5092 26.1858 55.5092 18.5071C55.5092 11.0156 60.253 6.66113 67.5398 6.66113C74.8266 6.66113 77.8587 10.0791 78.7879 16.0255L72.3325 16.9151Z" fill="#291547" />
                    <path d="M47.1436 16.9151C46.6056 14.3399 45.2852 12.467 42.302 12.467C39.3188 12.467 37.167 14.2463 37.167 18.3198C37.167 22.2996 39.221 24.2661 42.3509 24.2661C45.4319 24.2661 46.6056 22.2528 47.1925 19.4435L53.599 20.614C52.8165 26.4199 49.4421 30.1189 42.4976 30.1189C35.1619 30.1189 30.3203 26.1858 30.3203 18.5071C30.3203 11.0156 35.0641 6.66113 42.3509 6.66113C49.6377 6.66113 52.6698 10.0791 53.599 16.0255L47.1436 16.9151Z" fill="#291547" />
                    <path d="M23.3276 29.4622L21.2247 23.7031L9.43862 23.7031L7.28681 29.4622L4.52001e-09 29.4622L11.3459 1.36914L19.5619 1.36914L30.9078 29.4622L23.3276 29.4622ZM12.7641 14.8538L11.4926 18.2718L19.2196 18.2718L17.948 14.8538C17.1167 12.6064 16.2853 10.2653 15.5517 8.01784L15.2094 8.01784C14.4758 10.2653 13.5955 12.6064 12.7641 14.8538Z" fill="#291547" />
                </svg>
